<?xml version="1.0" encoding="utf-8"?>
<!-- Generator: Adobe Illustrator 25.2.1, SVG Export Plug-In . SVG Version: 6.00 Build 0)  -->
<svg version="1.1" id="레이어_1" focusable="false"
	 xmlns="http://www.w3.org/2000/svg" xmlns:xlink="http://www.w3.org/1999/xlink" x="0px" y="0px" viewBox="0 0 512 512"
	 style="enable-background:new 0 0 512 512;" xml:space="preserve">
<style type="text/css">
	.st0{fill:#FFFFFF;}
</style>
<path class="st0" d="M376.8,194c0.2,2.7,0.2,5.4,0.2,8.1c0,82.4-62.7,177.4-177.4,177.4c-35.3,0-68.1-10.2-95.7-28
	c5,0.6,9.9,0.8,15,0.8c29.2,0,56-9.9,77.4-26.6c-27.4-0.6-50.4-18.5-58.3-43.2c3.9,0.6,7.7,1,11.8,1c5.6,0,11.2-0.8,16.4-2.1
	c-28.6-5.8-50-30.9-50-61.2v-0.8c8.3,4.6,17.9,7.5,28.2,7.9c-16.8-11.2-27.8-30.3-27.8-51.9c0-11.6,3.1-22.2,8.5-31.5
	c30.7,37.9,76.8,62.6,128.6,65.3c-1-4.6-1.5-9.4-1.5-14.3c0-34.3,27.8-62.3,62.3-62.3c17.9,0,34.2,7.5,45.6,19.7
	c14.1-2.7,27.6-7.9,39.6-15c-4.6,14.5-14.5,26.6-27.4,34.3c12.5-1.4,24.7-4.8,35.9-9.6C399.6,174.2,389,185.2,376.8,194L376.8,194z"
	/>
</svg>
