<?xml version="1.0" encoding="utf-8"?>
<!-- Generator: Adobe Illustrator 25.2.1, SVG Export Plug-In . SVG Version: 6.00 Build 0)  -->
<svg version="1.1" id="레이어_1" focusable="false"
	 xmlns="http://www.w3.org/2000/svg" xmlns:xlink="http://www.w3.org/1999/xlink" x="0px" y="0px" viewBox="0 0 512 512"
	 style="enable-background:new 0 0 512 512;" xml:space="preserve">
<style type="text/css">
	.st0{fill:#FFFFFF;}
</style>
<path class="st0" d="M391.3,220.2c2.1-1.7,5.3-0.1,5.3,2.6v112.4c0,14.6-11.8,26.4-26.4,26.4H141.7c-14.6,0-26.4-11.8-26.4-26.4
	V222.8c0-2.7,3.1-4.3,5.3-2.6c12.3,9.6,28.6,21.7,84.7,62.4c11.6,8.5,31.2,26.3,50.7,26.2c19.6,0.2,39.6-18,50.7-26.2
	C362.8,241.9,379,229.7,391.3,220.2z M256,291.2c12.7,0.2,31.1-16,40.3-22.7c72.9-52.9,78.5-57.5,95.3-70.7
	c3.2-2.5,5.1-6.3,5.1-10.4v-10.4c0-14.6-11.8-26.4-26.4-26.4H141.7c-14.6,0-26.4,11.8-26.4,26.4v10.4c0,4.1,1.9,7.9,5.1,10.4
	c16.8,13.1,22.4,17.8,95.3,70.7C224.9,275.1,243.3,291.4,256,291.2L256,291.2z"/>
</svg>
