<?xml version="1.0" encoding="utf-8"?>
<!-- Generator: Adobe Illustrator 25.2.1, SVG Export Plug-In . SVG Version: 6.00 Build 0)  -->
<svg version="1.1" id="레이어_1" focusable="false"
	 xmlns="http://www.w3.org/2000/svg" xmlns:xlink="http://www.w3.org/1999/xlink" x="0px" y="0px" viewBox="0 0 384 512"
	 style="enable-background:new 0 0 384 512;" xml:space="preserve">
<style type="text/css">
	.st0{fill:#FFFFFF;}
</style>
<path class="st0" d="M192.2,101.2c-30.5,0-50.2,12.5-65.8,34.8c-2.8,4-1.9,9.6,2,12.6l16.5,12.5c4,3,9.6,2.3,12.7-1.6
	c9.5-12,16.7-18.9,31.6-18.9c11.7,0,26.3,7.6,26.3,19c0,8.6-7.1,13-18.7,19.6c-13.5,7.6-31.5,17-31.5,40.6v3.8
	c0,5.1,4.1,9.2,9.2,9.2h27.7c5.1,0,9.2-4.1,9.2-9.2v-2.2c0-16.4,47.8-17.1,47.8-61.3C259.3,126.4,224.6,101.2,192.2,101.2z
	 M188.4,243.8c-14.6,0-26.4,11.9-26.4,26.4c0,14.6,11.9,26.4,26.4,26.4s26.4-11.9,26.4-26.4C214.8,255.7,203,243.8,188.4,243.8z"/>
</svg>
